PathFileType	4	(X/Y/Z)	21_coords_data.trc
DataRate	CameraRate	NumFrames	NumMarkers	Units	OrigDataRate	OrigDataStartFrame	OrigNumFrames
30.0	30.0	6	21	m	30.0	31	71
Frame#	Time	THUMB_TIP	THUMB_IP	THUMB_MCP	THUMB_CMC	INDEX_TIP	INDEX_DIP	INDEX_PIP	INDEX_MCP	MIDDLE_TIP	MIDDLE_DIP	MIDDLE_PIP	MIDDLE_MCP	RING_TIP	RING_DIP	RING_PIP	RING_MCP	PINKY_TIP	PINKY_DIP	PINKY_PIP	PINKY_MCP	WRIST
X1	Y1	Z1	X2	Y2	Z2	X3	Y3	Z3	X4	Y4	Z4	X5	Y5	Z5	X6	Y6	Z6	X7	Y7	Z7	X8	Y8	Z8	X9	Y9	Z9	X10	Y10	Z10	X11	Y11	Z11	X12	Y12	Z12	X13	Y13	Z13	X14	Y14	Z14	X15	Y15	Z15	X16	Y16	Z16	X17	Y17	Z17	X18	Y18	Z18	X19	Y19	Z19	X20	Y20	Z20	X21	Y21	Z21
29	0.9999999999999956	0.5449904256804572	-0.02311655379037303	-0.11980340247932687	0.5235180802031854	-0.020126065413592853	-0.12741887088074672	0.4944992528928702	-0.015377627927739446	-0.11721201029695064	0.475169917065306	-0.021972903473771566	-0.07755385707548615	0.5621271941320152	0.060204995059835786	-0.15947509916142422	0.5495892649244195	0.05198939785560197	-0.1493112271746711	0.5324037903926238	0.042816849451637884	-0.13341991967988215	0.5047981043339047	0.02768039420122681	-0.10474153210875548	0.5194106726649157	-0.01620502224756959	-0.11191543963249298	0.5346933969963393	-0.010117696164361867	-0.1194905830744622	0.5470346836282408	0.01609972525238812	-0.11636824284223349	0.5166072965841882	0.027567281933887133	-0.08572811910834444	0.5285841649267107	-0.018560218542034157	-0.10538499254620948	0.5446954536450114	-0.010789363174958155	-0.10763002766832819	0.5571471167919583	0.009168609931724414	-0.09945596054431347	0.5283364270374308	0.01743448432041672	-0.07232036933168778	0.6035796363456881	0.005519878153903757	-0.08182171103303193	0.5868266971670433	0.0023645208364196924	-0.08027809544758785	0.5661275103848201	0.00020393462711076893	-0.0775054518017542	0.5311258109389627	-0.0025233908371470326	-0.06923948647918732	0.4622830810018609	-0.023011742144276925	-0.051989820119430985
30	1.0333333333333288	0.544541960202965	-0.023023942176708667	-0.12318049995175359	0.5224859368679833	-0.019854832963134728	-0.12879196869346352	0.4938365597292778	-0.015237333324917945	-0.11753533124459412	0.4750573285327419	-0.021750920491039105	-0.07760033834492785	0.5624637307017157	0.058305944253996045	-0.1599659353267529	0.54967394851784	0.050846518951897846	-0.14953624473443733	0.5322219955193576	0.04257018401393964	-0.13344458697230815	0.5043123448228344	0.02812008792372711	-0.10470642045143053	0.520919045356748	-0.017075613057057737	-0.11376606628399602	0.5358673353909393	-0.009375570825326696	-0.12049347103495717	0.547078656786971	0.017201984575280216	-0.11632821336194861	0.5162582477283069	0.027891962789994396	-0.08579995313923772	0.5301970210256846	-0.018982735866273415	-0.10708372324077772	0.545714204382016	-0.009902543764188754	-0.10841305844125612	0.5570444185222259	0.010417617216947894	-0.09953064411644058	0.528005560797372	0.017921869100494092	-0.07241696159812527	0.6031518258398006	0.006642068689595382	-0.08289805714442813	0.5864452118463193	0.003454845749443325	-0.08096656580285327	0.5658200873223506	0.001210557794411038	-0.0777448536888242	0.5309617055024256	-0.0017651569836083514	-0.06897434689296517	0.4622830810018609	-0.023011742144276925	-0.051989820119430985
31	1.0666666666666622	0.5436696748912195	-0.022523699653698825	-0.1276990755124719	0.5211037654832764	-0.019306601191850237	-0.1306025234764056	0.4929940056837182	-0.015067594927740569	-0.11792607957821463	0.47494677552977477	-0.021496857866906027	-0.0776414415405002	0.5627529765658337	0.05608737011937526	-0.16051587893630334	0.5497180434520601	0.049487289979731175	-0.1498140351292892	0.532012769999286	0.04222209472153393	-0.13351219281552718	0.5037831154111299	0.028551900119844098	-0.10470510210186215	0.5235890189441315	-0.018092823461198115	-0.11654296034955704	0.5378128678874674	-0.008300172742994216	-0.1220006258897327	0.5472187530648895	0.018687084929215114	-0.11628863872562537	0.5158813274120141	0.0282200652956065	-0.08590384055640088	0.5328031210910998	-0.019241516842386397	-0.10955352790475317	0.5474054782090103	-0.008669352713059242	-0.10953089554781845	0.5570108146835797	0.012033012721224257	-0.09956447414213365	0.5276288924032935	0.018458131979475767	-0.0725433468593486	0.602618083328651	0.00819962446445388	-0.08392277995292569	0.5859873665901415	0.004910551450496792	-0.08155608194254976	0.5654591015619408	0.0025193818541427992	-0.07785680337863676	0.530771444038901	-0.0008488390583896166	-0.06856675739120044	0.4622830810018609	-0.023011742144276925	-0.051989820119430985
32	1.0999999999999952	0.5421277406976548	-0.021464820842828525	-0.13316709089158166	0.5193583890506015	-0.018409837513152283	-0.13269411898096178	0.4919825153940246	-0.014768086491642185	-0.1183372672704903	0.4748891477846815	-0.02132500086124256	-0.07765909551066819	0.5630448038784734	0.05349992595556441	-0.16110255973856394	0.5497903831884886	0.047818716141596496	-0.15014609191254547	0.531852426399529	0.04165989364099232	-0.13364432095778214	0.5032808658609527	0.028899271952623873	-0.1047571515478726	0.527776714676822	-0.01890508180132322	-0.1203108313506589	0.5406762696944729	-0.006735195301517893	-0.12398443216300226	0.547506257808393	0.020515782189660436	-0.11622910894994393	0.5155348148081851	0.028481039962897525	-0.08605412888217348	0.5367694747738543	-0.01924716634935908	-0.11268977862621954	0.5498846769872092	-0.007010100077419312	-0.11088820155071985	0.5571025866519974	0.013925979325047022	-0.09949687422136172	0.527245430236784	0.01897653408718858	-0.07270577604692888	0.6019972386710603	0.010167960466881953	-0.08479164445804213	0.5854734342683007	0.0066860276503608596	-0.08199163875794496	0.5650723748117576	0.004028230263566246	-0.07780297487773896	0.5305706453453365	0.00013921710366093798	-0.06803621024107548	0.46228308100186094	-0.023011742144276925	-0.051989820119430985
33	1.1333333333333284	0.5395795487428855	-0.019593842773810155	-0.13939405223495388	0.517167804040134	-0.017016716688804556	-0.13502688833596033	0.4907665715307017	-0.014268972660602897	-0.11877127931204558	0.4748046435015715	-0.02114367393773109	-0.07768788441893676	0.5632831145475377	0.05078745019332842	-0.1616587468933565	0.5498557701928231	0.04602044050847587	-0.15047921012994636	0.531726050248257	0.040984597191626726	-0.13380697663170898	0.5028229218061764	0.029163999869951107	-0.10484978859109662	0.533720385762525	-0.01889704075676857	-0.12511997591764276	0.5444064664588031	-0.004321852649495472	-0.12629111681020863	0.5478946378635245	0.022767895793093906	-0.1161231406316117	0.5152049801029516	0.02869119957458144	-0.08624926125833926	0.542359859873554	-0.018476733391820654	-0.11639745435086825	0.5532076588598525	-0.004653806831815932	-0.11236608256578318	0.557291194226325	0.016149619408568294	-0.0993000129742165	0.5268596148199152	0.019478069310974955	-0.07288862849557654	0.6013024802020198	0.012463837340236483	-0.08550783478965648	0.5849170064341853	0.00870727599970822	-0.08228223464418655	0.5646645661512695	0.005704328924328483	-0.07763110677565882	0.5303668743147394	0.0011113360229559888	-0.06745976458820105	0.4622830810018609	-0.023011742144276925	-0.051989820119430985
34	1.1666666666666616	0.5357923824567353	-0.016997594293400198	-0.1458941861471772	0.5144877229668242	-0.01519350101702488	-0.13747654209025265	0.4893332344364386	-0.013571640667644824	-0.11921616762032983	0.4746813725791691	-0.020938049238020562	-0.07773184565540209	0.5634084923265701	0.04820847520105964	-0.1621757655271399	0.5498606511157236	0.04428544527632594	-0.15081505099259876	0.5315982577881586	0.040285431922655435	-0.1340074718653191	0.5024194761631753	0.029341132646131474	-0.10498236014757684	0.5417359980336138	-0.017373524022220255	-0.13074579259794591	0.5489338365721776	-0.0008675948755294538	-0.12881048296453074	0.5483010949387976	0.0252803136969465	-0.11595373122426503	0.5149169411207475	0.028835113208167673	-0.08647476252982464	0.549822698453752	-0.01644471898908173	-0.1203626942772838	0.5573046532593382	-0.0014401715575940166	-0.11373820119000493	0.5575297308904983	0.018595793153058482	-0.09895004927120726	0.5264839428460407	0.01994819936346992	-0.07308403148453088	0.6005389017089082	0.01500256987643478	-0.08603566734008677	0.5843227229240702	0.010900244839258444	-0.08240159594459623	0.5642353686011062	0.0074829036175605435	-0.0773387909633445	0.5301537809042245	0.0020790372234160692	-0.0668446469270737	0.4622830810018609	-0.023011742144276925	-0.051989820119430985
